PathFileType	3	(X/Y/Z)	D:\Jess\PFP\Labelled\PA23\20251014\SRRun01.trc
DataRate	CameraRate	NumFrames	NumMarkers	Units	OrigDataRate	OrigDataStartFrame	OrigNumFrames
250.0	250.0	4	37	mm	250.0	35625	2501
Frame#	Time	C7			T10			CLAV			LSHO			RSHO			LASIS			RASIS			LPSIS			RPSIS			LILCR			RILCR			LGTR			LTHI			LLTHI			LLEP			LMEP			LPSH			LLSH			LDSH			LLMAL			LMMAL			LTOE			L5TH			LHEE			RGTR			RTHI			RLTHI			RLEP			RMEP			RPSH			RLSH			RDSH			RLMAL			RMMAL			RTOE			R5TH			RHEE			
		X1	Y1	Z1	X2	Y2	Z2	X3	Y3	Z3	X4	Y4	Z4	X5	Y5	Z5	X6	Y6	Z6	X7	Y7	Z7	X8	Y8	Z8	X9	Y9	Z9	X10	Y10	Z10	X11	Y11	Z11	X12	Y12	Z12	X13	Y13	Z13	X14	Y14	Z14	X15	Y15	Z15	X16	Y16	Z16	X17	Y17	Z17	X18	Y18	Z18	X19	Y19	Z19	X20	Y20	Z20	X21	Y21	Z21	X22	Y22	Z22	X23	Y23	Z23	X24	Y24	Z24	X25	Y25	Z25	X26	Y26	Z26	X27	Y27	Z27	X28	Y28	Z28	X29	Y29	Z29	X30	Y30	Z30	X31	Y31	Z31	X32	Y32	Z32	X33	Y33	Z33	X34	Y34	Z34	X35	Y35	Z35	X36	Y36	Z36	X37	Y37	Z37	

626	142.496	902.3792270767628	1670.908553735206	-868.2568908033909	886.6712881923598	1417.214661122255	-796.25712508984	869.0101487794324	1549.149484645365	-1023.168872962055	706.8848181932942	1647.860428383947	-908.1089869412834	1050.625494769271	1635.834356563957	-944.4313842608009	740.5481862752335	1132.792953357844	-968.0920485860061	1003.640397190679	1120.42979909351	-975.125098069189	849.2849297740405	1171.733760350816	-790.932663035529	903.2462912056649	1168.720088654065	-789.4088498210713	718.3344734622507	1221.72620377714	-895.8314146886472	1038.047321205827	1209.921419391037	-915.0567056170069	686.9742242454382	990.166037530297	-900.2858233301705	739.7078907154988	872.9091529634104	-1077.104482716908	692.7365112516052	721.6105527197092	-1049.718150082395	705.6944278836995	616.8827565676672	-1080.167818032492	nan	nan	nan	745.240352757466	501.9820661694604	-1050.210051012723	692.0150916052305	523.9485559065159	-905.7017544176782	748.7430547308446	405.43097315764	-824.8703752008637	715.2450143500593	383.5428215721763	-673.3521051602281	nan	nan	nan	705.0371950280678	210.7143736204594	-708.5789105156507	672.7200405971009	238.1769021112995	-657.4075168069071	778.8312670799274	426.9588910483171	-606.6531743346285	1056.542283758166	974.9066445008471	-873.8125509026569	951.1080591111761	806.4972181073548	-972.7796344488473	986.4437875216547	703.4002901834352	-864.5178581799814	949.0148169996044	543.0228425242844	-852.196720188329	nan	nan	nan	881.2690339174063	423.4397338144278	-852.0785233619667	943.0593797099915	338.3164769382129	-722.3059021722352	864.4609009375912	230.3053003141576	-705.4492889547003	901.7458816281927	137.1623918158726	-596.5193079321757	nan	nan	nan	873.9100872371317	64.55368114974947	-747.3462191737747	925.6386757438602	46.14538029911758	-699.6511394122263	854.9798071769203	107.2177912849229	-500.4976775936042	
627	142.5	902.8819874833166	1674.401065649219	-868.2027538301647	888.4453684414973	1420.533533138551	-796.9016166179928	868.2217128738889	1553.33609610424	-1023.079571053012	707.4235162746294	1651.617044648322	-906.3321653028631	1050.301667606698	1640.248114458995	-945.7361459861736	740.6993072975727	1137.410937514117	-968.5322422285889	1003.529376944199	1122.640769732163	-975.8480917140182	849.7284335404397	1176.048066690794	-791.4529750394234	903.7900087825751	1172.643974576708	-790.1765160266928	718.7293336803557	1226.711757188498	-896.2246859428398	1038.145470327009	1212.354092477811	-917.3230406098294	686.5221458044809	995.7245363482999	-901.6161020110246	740.5938228809678	879.2987853156145	-1078.024728892298	693.9367204338374	727.1544539989141	-1052.191480182156	707.6223996074314	622.0624399831579	-1082.988215290236	nan	nan	nan	747.1861107086506	506.0983101043739	-1055.91369561304	693.7369115281432	523.605322151836	-910.8957573612334	750.3814106924806	402.4037301209368	-833.7542129018326	716.6633324928398	375.3550767129992	-683.2073438892185	nan	nan	nan	706.9601424300263	204.0214984679096	-724.694443341927	674.3844433007156	229.2435093807161	-672.6614609837619	779.8737595126955	416.6311800750398	-614.59555594024	1056.025136117971	977.6666947674573	-872.734314548887	949.9552855867686	808.1049660105425	-967.9797057470777	986.4969071856068	706.9545231511751	-857.4818457262242	949.6249013687977	546.5707919646408	-842.5209785079378	nan	nan	nan	881.8436095675929	426.6029372762848	-841.6825068319041	943.9701895779846	342.0077380990728	-711.7649054320768	865.4854902469013	233.5257262017608	-695.0518738850488	902.7438163061229	140.1099304722701	-586.0382442124042	nan	nan	nan	874.0082330053405	64.13863436347015	-735.6016107497604	925.7718776104348	46.35351166337716	-687.8232889999282	855.8320020324038	111.6249469973995	-489.9638545225578	
628	142.504	903.3703620129144	1677.925794269233	-868.1738177319311	890.2357223541521	1423.903071706912	-797.5557562316649	867.4520507320816	1557.562195820389	-1023.004787922373	707.9855776890895	1655.38891758674	-904.6344855348721	1049.959931107969	1644.674673783572	-947.0316494743912	740.8436872921894	1142.144063890755	-969.0331111403156	1003.365973863737	1124.960558674165	-976.6197026488007	850.1376323446763	1180.432046344955	-792.035227572443	904.3002487517488	1176.64031233683	-791.0041970419032	719.150603349689	1231.864721911709	-896.709577346558	1038.160055496811	1214.895294003176	-919.6399424440443	686.0864374351248	1001.363661204699	-902.995382545755	741.5353593036937	885.6305685956187	-1078.92779905615	695.1568086892316	732.6760843877864	-1054.522966402923	709.5578008999432	627.1115177755333	-1085.538010782779	nan	nan	nan	749.1784219768012	510.132155855211	-1061.381556317457	695.4939787242146	523.0849567699413	-916.031919268823	752.0866294012038	399.3132871265701	-842.6962882796474	718.1974686141616	367.0857487473735	-693.2963745833315	nan	nan	nan	708.8187652377195	197.5334130728803	-741.0403937113922	676.0434565118645	220.5354346652979	-688.1727054682523	781.1194553974373	406.0721392150456	-622.8837690106067	1055.506151952374	980.5549421060159	-871.7455558936488	948.8131881235023	809.9170142612696	-963.3104962332493	986.6798036866567	710.7328886472911	-850.6255494093419	950.3888041762601	550.3797335205272	-833.0056354368477	nan	nan	nan	882.6365442626217	430.0242729756917	-831.4875415507605	944.9989911934501	345.9525676314852	-701.3863380745685	866.6718066848574	236.9711431244958	-684.9411637115213	903.8230446487556	143.2684913095889	-575.8475676405116	nan	nan	nan	874.1381452262525	63.69440970581284	-723.9488207438494	925.9349410591279	46.594024279448	-676.0790310758863	856.724132586575	116.389643835967	-479.727759042051	
629	142.508	903.8442646460052	1681.470951262478	-868.1717852590847	892.0354158854607	1427.315048241425	-798.2122411129127	866.7037190769822	1561.813264562326	-1022.944553258898	708.5650604911312	1659.161377148843	-903.021787255928	1049.602686110649	1649.096538745974	-948.3163983405667	740.9768150324944	1146.975807381553	-969.5858147239237	1003.145363218944	1127.389427320306	-977.4376629244771	850.5079423899036	1184.873354453038	-792.674509069525	904.7698477920982	1180.699667357181	-791.8865604040324	719.5976366301626	1237.163152598008	-897.2775960109709	1038.083459546144	1217.554025864972	-922.0003288864549	685.6686597037941	1007.06033113388	-904.4025393737325	742.5200841220193	891.8901893087286	-1079.820861297287	696.3980552047608	738.159928918597	-1056.708573406583	711.4893337884811	632.0142735955503	-1087.824771376331	nan	nan	nan	751.2103125273762	514.0739628549429	-1066.614771037998	697.278286563295	522.3753856289399	-921.1219023911955	753.8580398813449	396.167253466816	-851.69874354923	719.8492137912284	358.7484004127254	-703.6232075560284	nan	nan	nan	710.6186002454392	191.2694404990694	-757.5954673134547	677.7035545565175	212.0740070890539	-703.9237203424975	782.5720876606633	395.3050974789529	-631.5377458387126	1054.990067484738	983.5721444769995	-870.8404247312316	947.7009475115286	811.9262026456132	-958.7906921119913	987.0014430304049	714.7182161553128	-843.9841306935579	951.3108099309727	554.4404667055122	-823.6698089560334	nan	nan	nan	883.6655839188738	433.693248027889	-821.5180952630442	946.1470850461488	350.1404281906723	-691.1863455757159	868.0299303557226	240.6270784002325	-675.1409079356044	904.9849011576539	146.6250754296653	-565.9710382085784	nan	nan	nan	874.3064504290343	63.22820030859886	-712.3988926659167	926.1291305322031	46.87153864738656	-664.4257113453003	857.6572669754951	121.5037825121628	-469.8196947305051	
